<svg xmlns="http://www.w3.org/2000/svg" viewBox="0 0 400 300" fill="none">
  <rect width="400" height="300" fill="#FDF3D6"/>
  <!-- Large bag -->
  <path d="M100 80 L100 210 Q100 228 118 228 L282 228 Q300 228 300 210 L300 80 Z" fill="#D4A017" opacity="0.25"/>
  <path d="M130 80 Q130 42 200 42 Q270 42 270 80" stroke="#D4A017" stroke-width="5" fill="none" opacity="0.4"/>
  <!-- Items - full pack -->
  <rect x="120" y="105" width="38" height="50" rx="4" fill="#B8860B" opacity="0.3"/>
  <rect x="168" y="110" width="32" height="40" rx="4" fill="#D4A017" opacity="0.35"/>
  <rect x="210" y="105" width="35" height="48" rx="4" fill="#B8860B" opacity="0.25"/>
  <rect x="255" y="112" width="28" height="38" rx="4" fill="#D4A017" opacity="0.3"/>
  <circle cx="145" cy="190" r="16" fill="#B8860B" opacity="0.25"/>
  <circle cx="185" cy="195" r="14" fill="#D4A017" opacity="0.3"/>
  <circle cx="220" cy="190" r="15" fill="#B8860B" opacity="0.2"/>
  <circle cx="260" cy="193" r="13" fill="#D4A017" opacity="0.28"/>
  <text x="200" y="268" text-anchor="middle" font-family="Georgia, serif" font-size="16" fill="#B8860B" opacity="0.6">Pachet complet</text>
</svg>
